<?xml version="1.0" encoding="UTF-8"?><svg id="a" xmlns="http://www.w3.org/2000/svg" viewBox="0 0 384 514.18"><path d="M191.98,14c.35,0,1.01,.07,1.51,.55,49.76,46.91,95.09,103.69,127.65,159.89,31.5,54.38,48.85,104,48.85,139.74,0,57.08-17.14,104.59-49.58,137.39-31.45,31.8-75.86,48.61-128.42,48.61s-96.96-16.82-128.42-48.63c-32.44-32.81-49.58-80.31-49.58-137.37,0-35.73,17.29-85.29,48.67-139.56C95.21,118.36,140.59,61.52,190.47,14.55c.51-.48,1.16-.55,1.51-.55m0-14c-4.01,0-8.03,1.45-11.11,4.36C74.52,104.5,0,236.28,0,314.18c0,125.9,79,200,192,200s192-74.05,192-200c0-78.1-75-209.98-180.9-309.82-3.09-2.91-7.1-4.36-11.12-4.36h0Z"/><path d="M253.38,418.02h-7c-4.75,0-8.6-3.85-8.6-8.6v-96.77c0-4.75-3.85-8.6-8.6-8.6h-74.83c-4.75,0-8.6,3.85-8.6,8.6v96.77c0,4.75-3.85,8.6-8.6,8.6h-6.87c-4.75,0-8.6-3.85-8.6-8.6V190.88c0-4.75,3.85-8.6,8.6-8.6h6.87c4.75,0,8.6,3.85,8.6,8.6v84.89c0,4.75,3.85,8.6,8.6,8.6h74.83c4.75,0,8.6-3.85,8.6-8.6v-84.89c0-4.75,3.85-8.6,8.6-8.6h7c4.75,0,8.6,3.85,8.6,8.6v218.54c0,4.75-3.85,8.6-8.6,8.6Z"/></svg>