<?xml version="1.0" encoding="UTF-8"?><svg id="a" xmlns="http://www.w3.org/2000/svg" viewBox="0 0 384 512"><defs><style>.b{fill:#db7e40;}.c{fill:#e2e227;}.d{fill:#d13030;}</style></defs><path d="M191.98,14c.35,0,1.01,.07,1.51,.55,49.95,47.09,95.3,103.51,127.68,158.85,31.48,53.8,48.82,103.03,48.82,138.6,0,57.08-17.14,104.59-49.58,137.39-31.45,31.8-75.86,48.61-128.42,48.61s-96.96-16.82-128.42-48.63c-32.44-32.81-49.58-80.31-49.58-137.37,0-35.56,17.27-84.72,48.64-138.42C95.01,118.17,140.4,61.7,190.47,14.55c.51-.48,1.16-.55,1.51-.55m0-14c-4.01,0-8.03,1.45-11.11,4.36C74.52,104.5,0,234.1,0,312c0,125.9,79,200,192,200s192-74.05,192-200c0-78.1-75-207.8-180.9-307.63-3.09-2.91-7.1-4.36-11.12-4.36h0Z"/><path class="c" d="M192,499.94c-113.26,0-185.85-75.69-185.85-183.9,0-25,1.85-110.89,161.54-286.65,6.33-6.97,15.32-17.39,24.32-17.39,9,0,17.99,10.42,24.32,17.39,159.7,175.68,160.91,261.67,160.91,286.73,0,108.05-71.96,183.82-185.22,183.82Z"/><path class="b" d="M192,499.94c-90.95,0-154.54-57.48-154.54-139.65,0-18.98,6.77-84.21,135.01-217.68,10.16-10.58,28.9-10.58,39.05,0,128.25,133.41,135.01,198.72,135.01,217.75,0,82.05-63.59,139.59-154.54,139.59Z"/><path class="d" d="M192,499.94c-59.47,0-101.04-39.74-101.04-96.56,0-13.12,4.43-58.23,88.27-150.51,6.65-7.32,18.89-7.32,25.53,0,83.85,92.24,88.27,137.4,88.27,150.55,0,56.73-41.57,96.52-101.04,96.52Z"/></svg>